# Blender v2.79 (sub 0) OBJ File: ''
# www.blender.org
mtllib arch.mtl
o 001-front_001-front_Cube.000
v -3.000000 3.000000 1.500000
v -2.000000 2.700000 1.500000
v -2.000000 -0.000000 1.500000
v -3.000000 -0.000000 1.500000
v -2.000000 4.000000 1.500000
v -1.600000 3.100000 1.500000
v 2.000000 4.000000 1.500000
v 1.600000 3.100000 1.500000
v 3.000000 3.000000 1.500000
v 2.000000 2.700000 1.500000
v 3.000000 -0.000000 1.500000
v 2.000000 -0.000000 1.500000
vn 0.0000 0.0000 -1.0000
usemtl Material.001
s 1
f 1//1 3//1 4//1
f 2//1 5//1 6//1
f 6//1 7//1 8//1
f 8//1 9//1 10//1
f 10//1 11//1 12//1
f 1//1 2//1 3//1
f 2//1 1//1 5//1
f 6//1 5//1 7//1
f 8//1 7//1 9//1
f 10//1 9//1 11//1
o 003-middle_002-middle_Cube
v 4.000000 -0.000000 0.500000
v 4.000000 3.300000 0.500000
v 4.000000 3.300000 -0.500000
v 4.000000 0.000000 -0.500000
v 2.700000 4.700000 0.500000
v 2.700000 4.700000 -0.500000
v -2.700000 4.700000 0.500000
v -2.700000 4.700000 -0.500000
v -4.000000 3.300000 0.500000
v -4.000000 3.300000 -0.500000
v -4.000000 0.000000 -0.500000
v -4.000000 -0.000000 0.500000
vn -1.0000 0.0000 0.0000
vn -0.7328 -0.6805 0.0000
vn 0.0000 -1.0000 0.0000
vn 0.7328 -0.6805 0.0000
usemtl Material.001
s 1
f 13//2 15//2 16//2
f 14//3 18//3 15//3
f 17//4 20//4 18//4
f 19//5 22//5 20//5
f 23//2 21//2 22//2
f 13//2 14//2 15//2
f 14//3 17//3 18//3
f 17//4 19//4 20//4
f 19//5 21//5 22//5
f 23//2 24//2 21//2
o 005-inner_004-innerArch_Cube.001
v 2.000000 2.700000 1.500000
v 2.000000 -0.000000 1.500000
v 2.000000 0.000000 -1.500000
v 2.000000 2.700000 -1.500000
v 1.600000 3.100000 1.500000
v 1.600000 3.100000 -1.500000
v -1.600000 3.100000 1.500000
v -1.600000 3.100000 -1.500000
v -2.000000 2.700000 1.500000
v -2.000000 2.700000 -1.500000
v -2.000000 0.000000 -1.500000
v -2.000000 -0.000000 1.500000
vn 1.0000 -0.0000 0.0000
vn 0.7071 0.7071 0.0000
vn 0.0000 1.0000 0.0000
vn -0.7071 0.7071 0.0000
vn -1.0000 -0.0000 0.0000
usemtl Material.001
s 1
f 25//6 27//6 28//6
f 29//7 28//7 30//7
f 31//8 30//8 32//8
f 33//9 32//9 34//9
f 33//10 35//10 36//10
f 25//6 26//6 27//6
f 29//7 25//7 28//7
f 31//8 29//8 30//8
f 33//9 31//9 32//9
f 33//10 34//10 35//10
o 002-frontTop_001-front_Cube.002
v -3.000000 3.000000 1.500000
v -3.000000 -0.000000 1.500000
v -2.000000 4.000000 1.500000
v 2.000000 4.000000 1.500000
v 3.000000 3.000000 1.500000
v 3.000000 -0.000000 1.500000
v 4.000000 3.300000 0.500000
v 4.000000 -0.000000 0.500000
v 2.700000 4.700000 0.500000
v -2.700000 4.700000 0.500000
v -4.000000 3.300000 0.500000
v -4.000000 -0.000000 0.500000
vn -0.7071 0.0000 -0.7071
vn -0.5217 -0.4991 -0.6919
vn -0.5184 -0.4997 -0.6939
vn -0.5348 -0.4966 -0.6837
vn 0.0000 -0.8192 -0.5735
vn 0.5209 -0.4984 -0.6930
vn 0.5209 -0.5017 -0.6906
vn 0.5210 -0.4837 -0.7033
vn 0.7071 0.0000 -0.7071
vn -0.5025 -0.5025 -0.7035
vn 0.5206 -0.5206 -0.6768
usemtl Material.001
s 1
f 42//11 43//11 44//11
f 41//12 45//13 43//14
f 40//15 46//15 45//15
f 39//16 47//17 46//18
f 38//19 47//19 37//19
f 42//11 41//11 43//11
f 41//12 40//20 45//13
f 40//15 39//15 46//15
f 39//16 37//21 47//17
f 38//19 48//19 47//19
o 004-back_003-back_Cube.003
v -3.000000 3.000000 -1.500000
v -2.000000 2.700000 -1.500000
v -2.000000 0.000000 -1.500000
v -3.000000 0.000000 -1.500000
v -2.000000 4.000000 -1.500000
v -1.600000 3.100000 -1.500000
v 2.000000 4.000000 -1.500000
v 1.600000 3.100000 -1.500000
v 3.000000 3.000000 -1.500000
v 2.000000 2.700000 -1.500000
v 3.000000 0.000000 -1.500000
v 2.000000 0.000000 -1.500000
v -4.000000 0.000000 -0.500000
v -4.000000 3.300000 -0.500000
v -2.700000 4.700000 -0.500000
v 2.700000 4.700000 -0.500000
v 4.000000 3.300000 -0.500000
v 4.000000 0.000000 -0.500000
vn 0.0000 0.0000 -1.0000
vn -0.7071 0.0000 -0.7071
vn -0.5209 0.4984 -0.6930
vn -0.5209 0.5017 -0.6906
vn -0.5210 0.4837 -0.7033
vn 0.0000 0.8192 -0.5735
vn 0.5217 0.4991 -0.6919
vn 0.5184 0.4997 -0.6939
vn 0.5348 0.4966 -0.6837
vn 0.7071 0.0000 -0.7071
vn -0.5206 0.5206 -0.6768
vn 0.5025 0.5025 -0.7035
usemtl Material.001
s 1
f 49//22 51//22 52//22
f 50//22 53//22 54//22
f 54//22 55//22 56//22
f 56//22 57//22 58//22
f 58//22 59//22 60//22
f 52//23 62//23 49//23
f 53//24 62//25 63//26
f 55//27 63//27 64//27
f 57//28 64//29 65//30
f 59//31 65//31 66//31
f 49//22 50//22 51//22
f 50//22 49//22 53//22
f 54//22 53//22 55//22
f 56//22 55//22 57//22
f 58//22 57//22 59//22
f 52//23 61//23 62//23
f 53//24 49//32 62//25
f 55//27 53//27 63//27
f 57//28 55//33 64//29
f 59//31 57//31 65//31
