# Blender v2.79 (sub 6) OBJ File: 'enemyPod.blend'
# www.blender.org
mtllib enemyPod.mtl
o Cube.003
v 0.000000 1.000000 -1.000000
v -0.870000 1.000000 -0.500000
v -0.870000 1.000000 0.500000
v 0.000000 1.000000 1.000000
v 0.870000 1.000000 0.500000
v 0.870000 1.000000 -0.500000
v 0.500000 0.000000 -0.870000
v -0.500000 0.000000 -0.870000
v -1.000000 0.000000 0.000000
v -0.500000 0.000000 0.870000
v 0.500000 0.000000 0.870000
v 1.000000 0.000000 0.000000
v 0.000000 0.500000 0.000000
vn 0.8583 0.4590 0.2295
vn -0.8583 0.4590 0.2295
vn 0.6265 0.4636 -0.6265
vn -0.2295 0.4590 0.8583
vn -0.2295 0.4590 -0.8583
vn 0.6265 0.4636 0.6265
vn -0.8583 0.4590 -0.2295
vn 0.8583 0.4590 -0.2295
vn -0.6265 0.4636 0.6265
vn 0.2295 0.4590 -0.8583
vn 0.2295 0.4590 0.8583
vn -0.6265 0.4636 -0.6265
usemtl Material
s off
f 13//1 7//1 1//1
f 8//2 13//2 1//2
f 2//3 13//3 8//3
f 13//4 2//4 9//4
f 3//5 13//5 9//5
f 13//6 3//6 10//6
f 13//7 10//7 4//7
f 11//8 13//8 4//8
f 5//9 13//9 11//9
f 13//10 5//10 12//10
f 6//11 13//11 12//11
f 7//12 13//12 6//12
o Cube.002
v 0.500000 0.000000 -0.870000
v -1.000000 0.000000 0.000000
v 0.500000 0.000000 0.870000
v 0.000000 1.000000 -1.000000
v -0.870000 1.000000 -0.500000
v -0.870000 1.000000 0.500000
v 0.000000 1.000000 1.000000
v 0.870000 1.000000 0.500000
v 0.870000 1.000000 -0.500000
v 0.000000 1.400000 0.000000
vn -0.2087 0.9080 0.3632
vn -0.2087 0.9080 -0.3632
vn 0.4177 0.9086 0.0000
vn 0.4937 0.1352 0.8591
vn 0.4937 0.1352 -0.8591
vn -0.9917 0.1289 0.0000
usemtl Material
s off
f 20//13 23//13 19//13
f 23//14 17//14 18//14
f 23//15 21//15 22//15
f 20//16 16//16 21//16
f 14//17 17//17 22//17
f 18//18 15//18 19//18
o Cube.001
v 0.000000 1.000000 -1.000000
v -0.870000 1.000000 -0.500000
v -0.870000 1.000000 0.500000
v 0.000000 1.000000 1.000000
v 0.870000 1.000000 0.500000
v 0.870000 1.000000 -0.500000
v -0.500000 0.000000 -0.870000
v -0.500000 0.000000 0.870000
v 1.000000 0.000000 0.000000
v 0.000000 1.400000 0.000000
vn -0.4177 0.9086 0.0000
vn 0.2087 0.9080 -0.3632
vn 0.2087 0.9080 0.3632
vn -0.4937 0.1352 0.8591
vn 0.9917 0.1289 0.0000
vn -0.4937 0.1352 -0.8591
usemtl Material
s off
f 33//19 25//19 26//19
f 24//20 33//20 29//20
f 33//21 27//21 28//21
f 31//22 27//22 26//22
f 28//23 32//23 29//23
f 24//24 30//24 25//24
o Cube
v -0.870000 1.000000 0.500000
v -0.870000 1.000000 -0.500000
v 0.000000 1.000000 -1.000000
v 0.000000 1.000000 1.000000
v 0.870000 1.000000 0.500000
v 0.870000 1.000000 -0.500000
v 0.000000 1.400000 0.000000
